<?xml version="1.0" encoding="utf-8"?>
<!-- Generator: Adobe Illustrator 27.0.0, SVG Export Plug-In . SVG Version: 6.00 Build 0)  -->
<svg version="1.1" id="Camada_1" xmlns="http://www.w3.org/2000/svg" xmlns:xlink="http://www.w3.org/1999/xlink" x="0px" y="0px"
	 viewBox="0 0 1080 1080" style="enable-background:new 0 0 1080 1080;" xml:space="preserve">
<style type="text/css">
	.st0{display:none;}
	.st1{display:inline;}
</style>
<g class="st0">
	<path class="st1" d="M1080,168.42c-4.88,25.74-10.02,51.44-14.59,77.23c-23.05,130.06-45.94,260.15-68.89,390.23
		c-11.38,64.52-22.71,129.05-34.17,193.56c-8.58,48.32-46.5,77.2-95.07,71.55c-20.14-2.34-40.05-6.7-58.32-9.85
		c-19.55-99.5-50.53-194.83-74.97-291.8c-1.98-7.86-0.72-11.77,5.9-16.23c47.77-32.21,90.82-69.43,122.09-118.64
		c13.28-20.89,23.15-43.21,26.88-67.9c4.95-32.81-10.82-63.99-39.85-78.98c-29.41-15.2-64.35-9.81-88.32,13.76
		c-1.94,1.91-3.21,4.52-5.11,7.27c-28.51-48.94-48.19-57.9-104.12-48.05c-6.65-24.79-13.92-49.56-19.86-74.64
		c-8.99-37.98-25.53-71.07-57.26-95.26c-20.78-15.84-44.14-25.47-69.83-29.18c0.01-45.73,24.94-76.03,59.48-87.4
		c4.27-1.41,8.57-2.72,12.85-4.08c8.42,0,16.84,0,25.26,0c0.9,0.51,1.75,1.3,2.71,1.47C665.87,12.25,726.95,22.93,788,33.71
		c74.85,13.22,149.79,25.99,224.5,40.03c34.59,6.5,55.74,28.97,65.24,62.61c0.65,2.3,1.5,4.54,2.26,6.8
		C1080,151.58,1080,160,1080,168.42z"/>
	<path class="st1" d="M476.44,153.45c47.07-0.08,79.3,24.59,89.83,63.32c16.45,60.49,32.45,121.11,48.69,181.66
		c41.1,153.24,82.22,306.47,123.35,459.7c14.45,53.84-9.87,97.26-63.24,111.6c-129.87,34.91-259.8,69.62-389.75,104.23
		c-49.95,13.3-93.49-11.62-106.95-61.69C120.81,798.18,63.44,584.04,6.2,369.86C-7.39,319,17.35,275.71,68.03,262.02
		c119-32.16,238.12-63.89,357.22-95.68C444.8,161.11,464.51,156.44,476.44,153.45z M335.24,440.16
		c-13.82-0.29-21.65,5.81-25.85,18.18c-19.67,58.01-39.15,116.1-58.93,174.07c-4,11.73-1.76,21.01,7.59,29.2
		c46.42,40.66,92.64,81.56,139.08,122.2c14.78,12.94,32,8.46,38.31-10.07c19.98-58.65,39.59-117.42,59.51-176.09
		c3.72-10.95,1.49-19.87-7.11-27.44c-46.88-41.21-93.67-82.52-140.7-123.55C343.12,443.17,337.59,441.42,335.24,440.16z"/>
</g>
<g class="st0">
	<path class="st1" d="M521.79,778.97c-111.14-21.87-221.43-43.58-332.76-65.49c0-4.13,0-7.91,0-11.69
		c0-158.91,0.41-317.83-0.44-476.74c-0.13-24.3,17.28-43.19,44.86-37.54c93,19.03,186.23,36.87,279.37,55.19
		c2.75,0.54,5.44,1.35,8.97,2.23C521.79,422.41,521.79,600.06,521.79,778.97z M435.27,384.17c8.8,0.06,15.16-3.33,17.38-12.18
		c2.15-8.55-2.05-16.3-10.78-18.96c-7-2.13-14.33-3.22-21.54-4.64c-46.39-9.15-92.78-18.32-139.19-27.37
		c-11.16-2.18-19.66,3.62-20.68,13.7c-1,9.88,4.68,16.17,17.1,18.64c24.74,4.92,49.48,9.78,74.24,14.61
		C379.64,373.41,407.5,378.78,435.27,384.17z M453,488.62c-0.39-8.19-6.51-12.69-15.22-14.39
		c-51.91-10.19-103.82-20.35-155.76-30.37c-11.6-2.24-19.28,2.16-21.27,11.43c-2.16,10.04,3.37,17.7,14.9,20.15
		c9.59,2.04,19.26,3.72,28.88,5.61c42.63,8.35,85.23,16.8,127.88,25.04C444.55,508.42,453.34,501.4,453,488.62z M279.61,565.72
		c-11.31-0.39-17.92,4.81-19.08,13.38c-1.27,9.41,3.9,16.45,14.41,18.58c28.49,5.77,57.03,11.29,85.55,16.91
		c23.71,4.67,47.42,9.37,71.14,13.97c10.87,2.11,19.32-2.76,21.13-11.96c1.9-9.68-3.21-16.75-14.24-19.59
		c-2.03-0.52-4.11-0.86-6.17-1.27c-26.8-5.31-53.59-10.65-80.4-15.92C327.21,574.96,302.45,570.17,279.61,565.72z"/>
	<path class="st1" d="M888.87,713.58c-111.5,21.95-221.78,43.66-332.88,65.53c0-178.4,0-356.06,0-534.32
		c40.43-7.97,80.58-15.86,120.71-23.78c55.33-10.92,110.85-20.98,165.91-33.16c29.77-6.59,46.83,13.08,46.7,37.46
		c-0.86,158.91-0.44,317.83-0.44,476.75C888.87,705.52,888.87,708.99,888.87,713.58z M801.56,565.6c-1.04,0.13-2.1,0.19-3.12,0.39
		c-53.17,10.45-106.37,20.78-159.48,31.49c-9.99,2.01-15.26,10.77-13.1,19.34c2.23,8.82,10.46,13.86,20.38,11.94
		c32.27-6.24,64.5-12.65,96.74-19c20.58-4.05,41.2-7.94,61.73-12.25c9.55-2,15.08-9.72,13.9-18.1
		C817.44,571.08,810.47,565.45,801.56,565.6z M642.23,506.94c1.2-0.23,2.58-0.49,3.95-0.76c52.5-10.27,105.02-20.47,157.5-30.88
		c10.7-2.12,16.66-10.46,14.76-19.4c-1.97-9.27-10.06-14.26-20.95-12.18c-34.68,6.65-69.32,13.55-103.98,20.36
		c-18.18,3.57-36.42,6.85-54.52,10.82c-9.6,2.1-15.06,10.11-13.31,18.35C627.52,501.89,633.36,506.18,642.23,506.94z M642.4,384.17
		c0.76-0.11,1.8-0.22,2.83-0.42c53.18-10.42,106.39-20.72,159.52-31.38c10.19-2.05,15.55-10.47,13.65-19.07
		c-2.06-9.31-10.39-14.29-21-12.23c-35.35,6.87-70.68,13.84-106.02,20.77c-17.15,3.36-34.34,6.56-51.45,10.16
		c-9.73,2.04-15.32,9.33-14.43,17.75C626.39,378.05,633.45,384.19,642.4,384.17z"/>
	<path class="st1" d="M87.04,272.92c21.94,3.31,43.39,6.41,64.77,9.99c1.77,0.3,3.76,3.58,4.32,5.81c0.75,2.97,0.22,6.27,0.22,9.42
		c0,139.62,0,279.23,0,418.85c0,20.41,2.19,23.4,22.18,27.35c118.21,23.37,236.43,46.7,354.72,69.69
		c6.24,1.21,13.24-0.23,19.68-1.49c116.53-22.84,233.04-45.82,349.54-68.85c15.8-3.12,19.07-7.33,19.07-23.57
		c0.02-140.67,0.13-281.34-0.21-422c-0.03-10.87,1.56-16.15,14.12-17.01c18.4-1.27,36.62-5.25,56.17-8.27c0,4.86,0,8.64,0,12.41
		c0,161.72,0.01,323.43-0.01,485.15c0,25.36-7.89,35.39-33.06,40.56c-135.86,27.91-271.77,55.6-407.64,83.52
		c-19.5,4.01-37.49-3.25-55.82-6.93c-126.37-25.39-252.63-51.35-378.93-77.09c-19.26-3.92-29.83-15.75-29.84-34.84
		C86.25,610.75,86.28,445.87,86.3,281C86.3,278.62,86.73,276.23,87.04,272.92z"/>
</g>
<g class="st0">
	<path class="st1" d="M0,594.78c2-8.8,3.81-17.66,6.02-26.41c23.33-92.19,100.99-153.84,196.05-155.04
		c45.32-0.57,90.66-0.1,135.98-0.1c4.17,0,8.34,0,13.81,0c2.8,52.8,22.31,97.77,59.39,134.86
		C282.07,597.87,230.67,694.2,240.99,828.93C157.49,824.48,78.06,807.14,0,782.54C0,719.95,0,657.37,0,594.78z"/>
	<path class="st1" d="M1080,780.43c-43.02,20.78-88.51,33.68-135.52,40.87c-28.75,4.4-57.82,6.65-88.55,10.06
		c0-7.2-0.06-12.68,0.01-18.15c0.42-35.21,0.16-70.38-11.02-104.33c-25.02-75.95-75.27-127.76-149.94-156.03
		c-3.16-1.19-6.33-2.33-10.91-4.02c37.44-38.04,57.62-82.76,59.67-135.58c45.91,0,90.53-0.54,135.12,0.29
		c16.01,0.3,32.32,2.38,47.86,6.21c79.88,19.71,139.16,85.83,151.09,167.16c0.39,2.67,1.45,5.25,2.2,7.86
		C1080,656.66,1080,718.55,1080,780.43z"/>
	<path class="st1" d="M818.09,848.3c0,28.11-0.41,56.23,0.25,84.33c0.2,8.51-2.87,12.41-10.15,15.75
		c-40.52,18.61-83.19,29.64-127.01,36.6c-130.26,20.68-257.49,5.23-382.82-32.49c-20.2-6.08-20.23-6.02-20.21-26.97
		c0.05-50.6-0.73-101.22,0.37-151.8c2.28-104.91,85.14-191.28,189.77-195.88c55.38-2.43,111.03-2.04,166.43,0.32
		c78.76,3.36,154.62,68.2,175.4,145.43c8.82,32.79,7.9,66.07,7.97,99.4C818.11,831.43,818.09,839.87,818.09,848.3z"/>
	<path class="st1" d="M547.42,565.53c-87.68-0.41-157.75-70.84-157.58-158.39c0.17-87.81,71.69-158.88,159.17-158.18
		c87.08,0.7,158.2,72.63,157.43,159.23C705.66,495.66,634.63,565.94,547.42,565.53z"/>
	<path class="st1" d="M111.77,243.78c0.02-80.33,61.39-149.15,140.21-157.27c82.83-8.53,157.2,45.74,173.43,126.61
		c1.03,5.15,1.65,10.4,2.36,15.61c1.98,14.5-0.79,25.53-13.32,36.52c-31.15,27.33-49.99,62.72-58.58,103.56
		c-1.03,4.91-5.4,10.64-9.83,13.1C240.5,440.34,111.73,364.27,111.77,243.78z"/>
	<path class="st1" d="M810.09,85.66c83.71,0.08,154.33,66.51,157.93,148.57c3.81,86.81-57.91,158.89-142.96,167.09
		c-25.67,2.47-50.3-1.4-74.24-10.83c-5.43-2.14-8.11-4.85-9.08-11.04c-8.91-56.71-37.17-101.5-84.53-133.89
		c-6.21-4.24-5.37-9.09-4.94-14.55C658.73,149.08,727.71,85.58,810.09,85.66z"/>
</g>
<path d="M572.77,1080c-22.46,0-44.92,0-67.38,0c-13.15-1.63-26.33-3.03-39.45-4.91c-108.42-15.52-204.04-59.18-285.5-132.36
	C88.2,859.86,30.5,757.15,8.4,634.91C4.8,614.99,2.76,594.78,0,574.7c0-22.46,0-44.92,0-67.37c0.63-3.41,1.36-6.8,1.89-10.22
	c4.04-25.94,6.11-52.36,12.36-77.75C55.16,253.09,153.02,131.37,306.06,55.41C407.32,5.16,515.24-9.52,626.6,9.26
	c141.07,23.79,255.9,93.39,342.2,207.33c89.08,117.61,123.27,251.04,104.26,397.19c-14.08,108.27-58.6,203.53-131.39,284.91
	c-82.98,92.77-185.98,150.75-308.69,172.93C613.05,1075.21,592.84,1077.24,572.77,1080z M504.52,664.72c0-83,0-165.15,0-247.41
	c-61.86,0-122.85,0-184.95,0c-11.02,82.59-11.01,164.82,0,247.41C381.67,664.72,442.66,664.72,504.52,664.72z M758.54,664.71
	c11.07-82.59,11.05-164.82,0.05-247.16c-62.38,0-123.62,0-184.96,0c0,82.75,0,164.91,0,247.16
	C635.5,664.71,696.49,664.71,758.54,664.71z M251.47,664.57c-10.05-82.96-9.84-164.71-0.16-246.62c-2.53-0.47-3.86-0.94-5.19-0.94
	c-51.89-0.05-103.78,0.05-155.67-0.19c-6.26-0.03-7.32,3.27-8.54,8.09c-15.46,60.9-18.69,122.45-9.46,184.55
	c2.76,18.58,7.17,36.92,10.78,55.11C139.92,664.57,194.86,664.57,251.47,664.57z M828.6,664.39c0.77,0.14,2.1,0.61,3.43,0.61
	c51.89,0.05,103.78-0.05,155.66,0.19c6.26,0.03,7.32-3.27,8.53-8.09c15.29-60.55,18.67-121.76,9.62-183.51
	c-2.77-18.93-7.26-37.6-10.84-55.77c-57.01,0-112.17,0-166.34,0c1.84,41.74,5.07,82.66,5.06,123.57
	C833.71,582.24,830.46,623.08,828.6,664.39z M504.71,349.26c0-91.66,0-182.24,0-273.69c-4.74,1.84-8.72,3.1-12.44,4.89
	c-32.18,15.51-56.54,40-77.01,68.53c-42.19,58.82-66.12,125.46-82.45,195.25c-0.35,1.49-0.04,3.14-0.04,5.02
	C390.42,349.26,447.18,349.26,504.71,349.26z M745.63,349.07c-0.22-2.6-0.13-4.72-0.6-6.72c-10.46-44.46-24.38-87.76-44.24-128.97
	c-20.57-42.68-45.53-82.25-82.87-112.61c-13.32-10.83-27.71-19.87-44.5-25.1c0,91.67,0,182.4,0,273.4
	C631.14,349.07,688.21,349.07,745.63,349.07z M505.11,732.94c-58.06,0-115.13,0-172.81,0c0.49,3.29,0.55,6.11,1.35,8.7
	c10.12,32.39,18.88,65.31,30.91,96.99c18.43,48.53,43.8,93.31,81.44,130.01c16.88,16.46,35.65,30.21,59.11,37.73
	C505.11,914.93,505.11,824.48,505.11,732.94z M573.19,1006.58c4.16-1.63,7.42-2.73,10.54-4.14c32.97-14.95,57.52-39.71,78.38-68.41
	c41.08-56.52,64.67-120.71,81.28-187.87c1.04-4.21,1.65-8.52,2.51-13.08c-58.24,0-115.27,0-172.71,0
	C573.19,824.15,573.19,914.59,573.19,1006.58z M815.55,732.94c-18.73,87.13-47.57,169.87-100.44,243.37
	c76.08-9.8,234.73-162.74,253.09-243.37C917.42,732.94,866.75,732.94,815.55,732.94z M716.7,105.52
	c51.5,73.95,80.16,156.78,98.84,243.35c51.54,0,102.12,0,154.42,0C916.17,234.39,832.41,153.46,716.7,105.52z M262.67,349.01
	c18.64-87.59,47.79-169.95,98.9-243.66C245.61,153.6,161.81,234.5,108.15,349.01C160.65,349.01,211.29,349.01,262.67,349.01z
	 M361.57,976.57c-51.44-73.8-80.29-156.56-98.98-243.57c-51.28,0-101.93,0-154.46,0C161.87,847.48,245.64,928.43,361.57,976.57z"/>
</svg>
