<?xml version="1.0" encoding="utf-8"?>
<!-- Generator: Adobe Illustrator 27.0.0, SVG Export Plug-In . SVG Version: 6.00 Build 0)  -->
<svg version="1.1" id="Camada_1" xmlns="http://www.w3.org/2000/svg" xmlns:xlink="http://www.w3.org/1999/xlink" x="0px" y="0px"
	 viewBox="0 0 1080 1080" style="enable-background:new 0 0 1080 1080;" xml:space="preserve">
<style type="text/css">
	.st0{display:none;}
	.st1{display:inline;}
</style>
<g class="st0">
	<path class="st1" d="M704.53,1080c-108.28,0-216.56,0-324.84,0c-6.6-0.58-13.2-1.51-19.81-1.67c-43.21-1.1-86.37-2.8-128.62-13.16
		c-88.81-21.78-154.92-72.29-194.29-155.55C12.64,858.15,5.11,802.82,4.5,746.63C3.24,629.66,1.96,512.66,2.89,395.69
		c0.39-49.02,3.35-98.45,10.55-146.89C24.67,173.31,61.1,110.64,122.9,64.34C175.86,24.66,237.15,8.87,301.98,4.3
		c25.88-1.83,51.8-2.89,77.71-4.3c107.58,0,215.16,0,322.73,0c25.19,1.4,50.39,2.72,75.58,4.21c44.09,2.6,87.27,10.2,127.72,28.4
		c99.28,44.66,151.58,124.2,167.85,229.67c2.87,18.63,4.32,37.49,6.42,56.24c0,144.84,0,289.69,0,434.53
		c-0.59,3.76-1.33,7.51-1.73,11.3c-2.28,21.25-3.36,42.7-6.91,63.73c-11.46,67.78-40.42,126.54-92.46,172.7
		c-56.4,50.03-124.31,69.99-197.79,74.97C755.6,1077.47,730.06,1078.6,704.53,1080z M542.31,984.56c0.01-0.55,0.03-1.11,0.04-1.66
		c28.47,0,56.98,0.85,85.42-0.17c61.06-2.19,122.54-1.63,183.02-9.01c79.79-9.74,134.42-54.89,158.57-133.35
		c11.07-35.99,12.96-73.31,13.4-110.55c1.11-95.6,2.48-191.22,1.63-286.82c-0.51-56.85-1.94-114.01-8.42-170.41
		C965.98,185.84,910.99,127,825.54,110c-37.28-7.42-76-9.62-114.13-10.26c-94.18-1.58-188.4-1.29-282.61-0.97
		c-54.08,0.18-108.32-0.52-161.9,8.89c-81.92,14.39-138.1,66.32-154.81,147.81c-7.21,35.18-9.62,71.74-10.38,107.76
		c-1.85,86.8-2.52,173.65-1.57,260.46c0.67,60.73,2.44,121.64,8.1,182.05c5.25,56.11,30.92,103.3,78.61,136.11
		c36.8,25.31,78.9,35.01,122.54,36.67C386.99,981.47,464.67,982.64,542.31,984.56z"/>
	<path class="st1" d="M542.57,817.56C389.8,818.14,265.08,693.83,264.5,540.41c-0.57-152.7,124.21-277.57,277.43-277.63
		c152.98-0.06,276.29,122.85,277.38,276.46C820.4,691.85,695.98,816.97,542.57,817.56z M362.25,539.86
		c-0.17,99.5,79.74,179.73,179.25,179.97c99.62,0.24,179.82-79.4,180.25-178.97c0.42-99.96-79.78-180.49-179.78-180.51
		C442.46,360.32,362.42,440.28,362.25,539.86z"/>
	<path class="st1" d="M894.93,251.45c0.14,35.75-28.22,64.64-63.75,64.95c-36.01,0.32-65.37-28.59-65.47-64.44
		c-0.1-35.7,28.25-64.44,63.9-64.79C865.97,186.8,894.79,215.17,894.93,251.45z"/>
</g>
<g>
	<path d="M970.31,1080c-286.88,0-573.75,0-860.62,0c-2.25-0.74-4.45-1.69-6.75-2.18c-37.2-8.02-66.64-27.65-85.23-60.89
		c-8.03-14.35-11.93-31-17.7-46.61c0-286.88,0-573.75,0-860.62c0.69-1.91,1.64-3.77,2.03-5.74c6.68-33.84,23.22-62.13,52.33-80.43
		C71.12,12.99,91.14,7.67,109.69,0c286.88,0,573.75,0,860.62,0c2.26,0.74,4.47,1.69,6.77,2.17c37.31,7.87,66.62,27.68,85.22,60.9
		c8.03,14.34,11.92,31,17.7,46.61c0,286.88,0,573.75,0,860.62c-0.74,2.25-1.67,4.45-2.19,6.75c-10.6,47.04-38.33,79.23-83.56,96.06
		C986.49,1076,978.3,1077.73,970.31,1080z M541.07,84.38c-136.02,0-272.05,0-408.07,0c-32.25,0-48.63,16.35-48.63,48.57
		c-0.01,271.34-0.01,542.69,0,814.03c0,32.21,16.4,48.65,48.57,48.65c271.34,0.01,542.69,0.01,814.03,0
		c32.2,0,48.64-16.41,48.64-48.59c0.01-271.34,0.01-542.69,0-814.03c0-32.25-16.38-48.62-48.59-48.63
		C811.71,84.37,676.39,84.38,541.07,84.38z"/>
	<path d="M889.7,891.78c-48.29,0-95.96,0-145.09,0c0-4.15,0-8.21,0-12.28c-0.03-78.39,0.14-156.77-0.29-235.16
		c-0.08-15.03-1.54-30.21-4.02-45.05c-8.25-49.37-41.27-72.64-90.64-64.74c-40.07,6.41-63.42,29.38-71.28,72.26
		c-3.02,16.49-4.33,33.49-4.43,50.27c-0.46,74.16-0.2,148.33-0.2,222.5c0,3.81,0,7.61,0,12.03c-47.99,0-95.2,0-142.93,0
		c0-158.44,0-316.48,0-475.3c47.2,0,94.42,0,142.86,0c0,20.01,0,40.09,0,60.16c19.44-28.1,44.57-47.77,76-58.38
		c52.01-17.57,104.05-15.36,154.35,6.06c42.92,18.29,65.36,54.46,75.07,98.27c5.67,25.58,9.81,52.04,10.13,78.16
		C890.41,697.23,889.7,793.89,889.7,891.78z"/>
	<path d="M336.75,891.8c-49.06,0-97.42,0-146.35,0c0-158.48,0-316.5,0-475.39c48.37,0,96.98,0,146.35,0
		C336.75,574.37,336.75,732.64,336.75,891.8z"/>
	<path d="M179.33,263.29c0.15-47.57,39.13-86.22,86.81-86.08c47.57,0.14,86.23,39.14,86.08,86.81
		c-0.15,47.55-39.18,86.26-86.81,86.1C217.87,349.96,179.18,310.94,179.33,263.29z"/>
</g>
</svg>
